<svg xmlns="http://www.w3.org/2000/svg" width="1280" height="720" viewBox="0 0 1280 720">
  <defs>
    <marker id="arrow" markerWidth="12" markerHeight="12" refX="10" refY="6" orient="auto">
      <path d="M2,2 L10,6 L2,10 Z" fill="#475569"/>
    </marker>
    <filter id="shadow" x="-10%" y="-10%" width="120%" height="120%">
      <feDropShadow dx="0" dy="8" stdDeviation="8" flood-color="#0F172A" flood-opacity="0.10"/>
    </filter>
  </defs>
  <rect x="0" y="0" width="1280" height="720" fill="#F8FAFC"/>
  <rect x="32" y="30" width="1216" height="660" rx="28" fill="white" stroke="#CBD5E1" filter="url(#shadow)"/>
  <text x="640.0" y="82" text-anchor="middle" font-family="Inter, Segoe UI, Arial, sans-serif" font-size="34" font-weight="800" fill="#111827">Texto humano -&gt; tokens -&gt; contexto</text>
  <text x="640.0" y="120" text-anchor="middle" font-family="Inter, Segoe UI, Arial, sans-serif" font-size="19" font-weight="500" fill="#475569">El modelo procesa piezas, no ideas completas</text>
  <rect x="90" y="230" width="330" height="110" rx="16" fill="#DCFCE7" stroke="#16A34A" stroke-width="2"/>
<text x="255" y="272" text-anchor="middle" font-family="Inter, Segoe UI, Arial, sans-serif" font-size="23" font-weight="500" fill="#111827">Usuario:</text>
<text x="255" y="300" text-anchor="middle" font-family="Inter, Segoe UI, Arial, sans-serif" font-size="23" font-weight="500" fill="#111827">Necesito revisar saldo</text>
<line x1="430" y1="285" x2="520" y2="285" stroke="#475569" stroke-width="3" stroke-linecap="round" marker-end="url(#arrow)"/>
<rect x="540" y="245" width="170" height="78" rx="14" fill="#DBEAFE" stroke="#2563EB" stroke-width="2"/>
<text x="625.0" y="289" text-anchor="middle" font-family="Inter, Segoe UI, Arial, sans-serif" font-size="22" font-weight="700" fill="#111827">Necesito</text>
<rect x="738" y="245" width="170" height="78" rx="14" fill="#DBEAFE" stroke="#2563EB" stroke-width="2"/>
<text x="823.0" y="289" text-anchor="middle" font-family="Inter, Segoe UI, Arial, sans-serif" font-size="22" font-weight="700" fill="#111827">revisar</text>
<rect x="936" y="245" width="170" height="78" rx="14" fill="#DBEAFE" stroke="#2563EB" stroke-width="2"/>
<text x="1021.0" y="289" text-anchor="middle" font-family="Inter, Segoe UI, Arial, sans-serif" font-size="22" font-weight="700" fill="#111827">saldo</text>
<line x1="1075" y1="285" x2="1130" y2="285" stroke="#475569" stroke-width="3" stroke-linecap="round" marker-end="url(#arrow)"/>
<rect x="890" y="430" width="260" height="90" rx="16" fill="#EDE9FE" stroke="#7C3AED" stroke-width="2"/>
<text x="1020" y="482" text-anchor="middle" font-family="Inter, Segoe UI, Arial, sans-serif" font-size="23" font-weight="800" fill="#111827">Contexto disponible</text>
</svg>
