<svg xmlns="http://www.w3.org/2000/svg" width="1280" height="720" viewBox="0 0 1280 720">
  <defs>
    <marker id="arrow" markerWidth="12" markerHeight="12" refX="10" refY="6" orient="auto">
      <path d="M2,2 L10,6 L2,10 Z" fill="#475569"/>
    </marker>
    <filter id="shadow" x="-10%" y="-10%" width="120%" height="120%">
      <feDropShadow dx="0" dy="8" stdDeviation="8" flood-color="#0F172A" flood-opacity="0.10"/>
    </filter>
  </defs>
  <rect x="0" y="0" width="1280" height="720" fill="#F8FAFC"/>
  <rect x="32" y="30" width="1216" height="660" rx="28" fill="white" stroke="#CBD5E1" filter="url(#shadow)"/>
  <text x="640.0" y="82" text-anchor="middle" font-family="Inter, Segoe UI, Arial, sans-serif" font-size="34" font-weight="800" fill="#111827">De RNN/LSTM a Transformer</text>
  <text x="640.0" y="120" text-anchor="middle" font-family="Inter, Segoe UI, Arial, sans-serif" font-size="19" font-weight="500" fill="#475569">Secuencial versus conexiones directas</text>
  <rect x="100" y="220" width="440" height="130" rx="16" fill="#FFE4E6" stroke="#E11D48" stroke-width="2"/>
<text x="320" y="270" text-anchor="middle" font-family="Inter, Segoe UI, Arial, sans-serif" font-size="26" font-weight="500" fill="#111827">RNN/LSTM</text>
<text x="320" y="298" text-anchor="middle" font-family="Inter, Segoe UI, Arial, sans-serif" font-size="26" font-weight="500" fill="#111827">lee paso a paso</text>
<rect x="135" y="420" width="72" height="58" rx="14" fill="#FFE4E6" stroke="#E11D48" stroke-width="2"/>
<text x="171.0" y="464" text-anchor="middle" font-family="Inter, Segoe UI, Arial, sans-serif" font-size="22" font-weight="700" fill="#111827">t1</text>
<rect x="239" y="420" width="72" height="58" rx="14" fill="#FFE4E6" stroke="#E11D48" stroke-width="2"/>
<text x="275.0" y="464" text-anchor="middle" font-family="Inter, Segoe UI, Arial, sans-serif" font-size="22" font-weight="700" fill="#111827">t2</text>
<rect x="343" y="420" width="72" height="58" rx="14" fill="#FFE4E6" stroke="#E11D48" stroke-width="2"/>
<text x="379.0" y="464" text-anchor="middle" font-family="Inter, Segoe UI, Arial, sans-serif" font-size="22" font-weight="700" fill="#111827">t3</text>
<rect x="447" y="420" width="72" height="58" rx="14" fill="#FFE4E6" stroke="#E11D48" stroke-width="2"/>
<text x="483.0" y="464" text-anchor="middle" font-family="Inter, Segoe UI, Arial, sans-serif" font-size="22" font-weight="700" fill="#111827">t4</text>
<line x1="207" y1="449" x2="240" y2="449" stroke="#475569" stroke-width="3" stroke-linecap="round" marker-end="url(#arrow)"/>
<line x1="312" y1="449" x2="345" y2="449" stroke="#475569" stroke-width="3" stroke-linecap="round" marker-end="url(#arrow)"/>
<line x1="417" y1="449" x2="450" y2="449" stroke="#475569" stroke-width="3" stroke-linecap="round" marker-end="url(#arrow)"/>
<rect x="740" y="220" width="440" height="130" rx="16" fill="#DCFCE7" stroke="#16A34A" stroke-width="2"/>
<text x="960" y="270" text-anchor="middle" font-family="Inter, Segoe UI, Arial, sans-serif" font-size="26" font-weight="500" fill="#111827">Transformer</text>
<text x="960" y="298" text-anchor="middle" font-family="Inter, Segoe UI, Arial, sans-serif" font-size="26" font-weight="500" fill="#111827">mira contexto en paralelo</text>
<rect x="775" y="420" width="72" height="58" rx="14" fill="#DCFCE7" stroke="#16A34A" stroke-width="2"/>
<text x="811.0" y="464" text-anchor="middle" font-family="Inter, Segoe UI, Arial, sans-serif" font-size="22" font-weight="700" fill="#111827">t1</text>
<rect x="879" y="420" width="72" height="58" rx="14" fill="#DCFCE7" stroke="#16A34A" stroke-width="2"/>
<text x="915.0" y="464" text-anchor="middle" font-family="Inter, Segoe UI, Arial, sans-serif" font-size="22" font-weight="700" fill="#111827">t2</text>
<rect x="983" y="420" width="72" height="58" rx="14" fill="#DCFCE7" stroke="#16A34A" stroke-width="2"/>
<text x="1019.0" y="464" text-anchor="middle" font-family="Inter, Segoe UI, Arial, sans-serif" font-size="22" font-weight="700" fill="#111827">t3</text>
<rect x="1087" y="420" width="72" height="58" rx="14" fill="#DCFCE7" stroke="#16A34A" stroke-width="2"/>
<text x="1123.0" y="464" text-anchor="middle" font-family="Inter, Segoe UI, Arial, sans-serif" font-size="22" font-weight="700" fill="#111827">t4</text>
<line x1="811" y1="420" x2="916" y2="420" stroke="#475569" stroke-width="3" stroke-linecap="round" marker-end="url(#arrow)"/>
<line x1="916" y1="420" x2="1021" y2="420" stroke="#475569" stroke-width="3" stroke-linecap="round" marker-end="url(#arrow)"/>
<line x1="811" y1="478" x2="1021" y2="478" stroke="#475569" stroke-width="3" stroke-linecap="round" marker-end="url(#arrow)"/>
</svg>
