<svg xmlns="http://www.w3.org/2000/svg" width="1280" height="720" viewBox="0 0 1280 720">
  <defs>
    <marker id="arrow" markerWidth="12" markerHeight="12" refX="10" refY="6" orient="auto">
      <path d="M2,2 L10,6 L2,10 Z" fill="#475569"/>
    </marker>
    <filter id="shadow" x="-10%" y="-10%" width="120%" height="120%">
      <feDropShadow dx="0" dy="8" stdDeviation="8" flood-color="#0F172A" flood-opacity="0.10"/>
    </filter>
  </defs>
  <rect x="0" y="0" width="1280" height="720" fill="#F8FAFC"/>
  <rect x="32" y="30" width="1216" height="660" rx="28" fill="white" stroke="#CBD5E1" filter="url(#shadow)"/>
  <text x="640.0" y="82" text-anchor="middle" font-family="Inter, Segoe UI, Arial, sans-serif" font-size="34" font-weight="800" fill="#111827">Self-attention: el significado sale del contexto</text>
  <text x="640.0" y="120" text-anchor="middle" font-family="Inter, Segoe UI, Arial, sans-serif" font-size="19" font-weight="500" fill="#475569">La palabra banco mira tokens distintos segun la frase</text>
  <rect x="120" y="230" width="300" height="90" rx="16" fill="#EDE9FE" stroke="#7C3AED" stroke-width="2"/>
<text x="270" y="283" text-anchor="middle" font-family="Inter, Segoe UI, Arial, sans-serif" font-size="34" font-weight="900" fill="#111827">banco</text>
<rect x="520" y="190" width="155" height="64" rx="14" fill="#DCFCE7" stroke="#16A34A" stroke-width="2"/>
<text x="597.5" y="234" text-anchor="middle" font-family="Inter, Segoe UI, Arial, sans-serif" font-size="22" font-weight="700" fill="#111827">credito</text>
<rect x="699" y="190" width="155" height="64" rx="14" fill="#DCFCE7" stroke="#16A34A" stroke-width="2"/>
<text x="776.5" y="234" text-anchor="middle" font-family="Inter, Segoe UI, Arial, sans-serif" font-size="22" font-weight="700" fill="#111827">cliente</text>
<rect x="878" y="190" width="155" height="64" rx="14" fill="#DCFCE7" stroke="#16A34A" stroke-width="2"/>
<text x="955.5" y="234" text-anchor="middle" font-family="Inter, Segoe UI, Arial, sans-serif" font-size="22" font-weight="700" fill="#111827">dinero</text>
<rect x="520" y="410" width="155" height="64" rx="14" fill="#FEF3C7" stroke="#D97706" stroke-width="2"/>
<text x="597.5" y="454" text-anchor="middle" font-family="Inter, Segoe UI, Arial, sans-serif" font-size="22" font-weight="700" fill="#111827">plaza</text>
<rect x="699" y="410" width="155" height="64" rx="14" fill="#FEF3C7" stroke="#D97706" stroke-width="2"/>
<text x="776.5" y="454" text-anchor="middle" font-family="Inter, Segoe UI, Arial, sans-serif" font-size="22" font-weight="700" fill="#111827">sente</text>
<rect x="878" y="410" width="155" height="64" rx="14" fill="#FEF3C7" stroke="#D97706" stroke-width="2"/>
<text x="955.5" y="454" text-anchor="middle" font-family="Inter, Segoe UI, Arial, sans-serif" font-size="22" font-weight="700" fill="#111827">asiento</text>
<line x1="420" y1="270" x2="520" y2="222" stroke="#475569" stroke-width="3" stroke-linecap="round" marker-end="url(#arrow)"/>
<line x1="420" y1="270" x2="700" y2="222" stroke="#475569" stroke-width="3" stroke-linecap="round" marker-end="url(#arrow)"/>
<line x1="420" y1="270" x2="880" y2="222" stroke="#475569" stroke-width="3" stroke-linecap="round" marker-end="url(#arrow)"/>
<line x1="420" y1="290" x2="520" y2="442" stroke="#475569" stroke-width="3" stroke-linecap="round" marker-end="url(#arrow)"/>
<line x1="420" y1="290" x2="700" y2="442" stroke="#475569" stroke-width="3" stroke-linecap="round" marker-end="url(#arrow)"/>
<line x1="420" y1="290" x2="880" y2="442" stroke="#475569" stroke-width="3" stroke-linecap="round" marker-end="url(#arrow)"/>
<text x="760" y="315" text-anchor="middle" font-family="Inter, Segoe UI, Arial, sans-serif" font-size="25" font-weight="800" fill="#475569">attention decide que pistas importan</text>
</svg>
