<svg xmlns="http://www.w3.org/2000/svg" width="1280" height="720" viewBox="0 0 1280 720">
  <defs>
    <marker id="arrow" markerWidth="12" markerHeight="12" refX="10" refY="6" orient="auto">
      <path d="M2,2 L10,6 L2,10 Z" fill="#475569"/>
    </marker>
    <filter id="shadow" x="-10%" y="-10%" width="120%" height="120%">
      <feDropShadow dx="0" dy="8" stdDeviation="8" flood-color="#0F172A" flood-opacity="0.10"/>
    </filter>
  </defs>
  <rect x="0" y="0" width="1280" height="720" fill="#F8FAFC"/>
  <rect x="32" y="30" width="1216" height="660" rx="28" fill="white" stroke="#CBD5E1" filter="url(#shadow)"/>
  <text x="640.0" y="82" text-anchor="middle" font-family="Inter, Segoe UI, Arial, sans-serif" font-size="34" font-weight="800" fill="#111827">Playground de latencia</text>
  <text x="640.0" y="120" text-anchor="middle" font-family="Inter, Segoe UI, Arial, sans-serif" font-size="19" font-weight="500" fill="#475569">Tokens -&gt; relaciones -&gt; recomendacion</text>
  <rect x="100" y="290" width="170" height="78" rx="14" fill="#FFE4E6" stroke="#E11D48" stroke-width="2"/>
<text x="185.0" y="334" text-anchor="middle" font-family="Inter, Segoe UI, Arial, sans-serif" font-size="22" font-weight="700" fill="#111827">Entrada</text>
<rect x="304" y="290" width="170" height="78" rx="14" fill="#FFE4E6" stroke="#E11D48" stroke-width="2"/>
<text x="389.0" y="334" text-anchor="middle" font-family="Inter, Segoe UI, Arial, sans-serif" font-size="22" font-weight="700" fill="#111827">Tokens</text>
<rect x="508" y="290" width="170" height="78" rx="14" fill="#FFE4E6" stroke="#E11D48" stroke-width="2"/>
<text x="593.0" y="334" text-anchor="middle" font-family="Inter, Segoe UI, Arial, sans-serif" font-size="22" font-weight="700" fill="#111827">N x N</text>
<rect x="712" y="290" width="170" height="78" rx="14" fill="#FFE4E6" stroke="#E11D48" stroke-width="2"/>
<text x="797.0" y="334" text-anchor="middle" font-family="Inter, Segoe UI, Arial, sans-serif" font-size="22" font-weight="700" fill="#111827">Latencia</text>
<rect x="916" y="290" width="170" height="78" rx="14" fill="#FFE4E6" stroke="#E11D48" stroke-width="2"/>
<text x="1001.0" y="334" text-anchor="middle" font-family="Inter, Segoe UI, Arial, sans-serif" font-size="22" font-weight="700" fill="#111827">Decision</text>
<line x1="270" y1="328" x2="304" y2="328" stroke="#475569" stroke-width="3" stroke-linecap="round" marker-end="url(#arrow)"/>
<line x1="508" y1="328" x2="542" y2="328" stroke="#475569" stroke-width="3" stroke-linecap="round" marker-end="url(#arrow)"/>
<line x1="746" y1="328" x2="780" y2="328" stroke="#475569" stroke-width="3" stroke-linecap="round" marker-end="url(#arrow)"/>
<line x1="984" y1="328" x2="1018" y2="328" stroke="#475569" stroke-width="3" stroke-linecap="round" marker-end="url(#arrow)"/>
<text x="640" y="470" text-anchor="middle" font-family="Inter, Segoe UI, Arial, sans-serif" font-size="28" font-weight="800" fill="#475569">Si crece la entrada, crecen las relaciones de attention</text>
</svg>
